<?xml version="1.0" standalone="no"?><!DOCTYPE svg PUBLIC "-//W3C//DTD SVG 1.1//EN" "http://www.w3.org/Graphics/SVG/1.1/DTD/svg11.dtd"><svg t="1625994631573" class="icon" viewBox="0 0 1024 1024" version="1.1" xmlns="http://www.w3.org/2000/svg" p-id="1985" xmlns:xlink="http://www.w3.org/1999/xlink" width="200" height="200"><defs><style type="text/css"></style></defs><path d="M385.479111 324.067556c111.957333 0 156.387556 52.963556 186.951111 173.44l9.841778 41.201777c22.144 91.136 41.486222 120.376889 94.734222 122.353778l6.058667 0.099556h209.393778a21.333333 21.333333 0 0 1 3.84 42.325333l-3.84 0.341333H683.064889c-84.878222 0-114.716444-42.296889-142.151111-154.680889l-7.153778-30.250666c-25.770667-108.046222-56.007111-149.475556-139.733333-152.035556l-8.533334-0.142222H149.333333a21.333333 21.333333 0 0 1-3.84-42.311111l3.84-0.341333h236.145778z" p-id="1986" fill="#d81e06"></path><path d="M524.117333 607.758222a21.333333 21.333333 0 0 1 4.977778 29.752889c-29.198222 40.931556-72.120889 63.573333-132.152889 66.090667l-11.463111 0.227555L170.666667 703.800889v43.591111a8.533333 8.533333 0 0 1-14.563556 6.044444l-64.739555-64.739555a8.533333 8.533333 0 0 1 0-12.060445l64.739555-64.739555A8.533333 8.533333 0 0 1 170.666667 617.955556v43.192888l214.812444 0.028445c52.579556 0 86.044444-16.426667 108.885333-48.426667a21.333333 21.333333 0 0 1 29.752889-4.977778zM861.866667 268.074667a8.533333 8.533333 0 0 1 6.030222 2.488889l64.739555 64.739555a8.533333 8.533333 0 0 1 0 12.060445l-64.739555 64.739555A8.533333 8.533333 0 0 1 853.333333 406.044444l-0.042666-39.338666H683.064889c-34.588444 0-55.936 12.344889-71.608889 38.044444a21.333333 21.333333 0 0 1-36.423111-22.200889c21.859556-35.84 54.016-55.893333 98.887111-58.268444l9.144889-0.227556 170.24-0.014222 0.028444-47.445333a8.533333 8.533333 0 0 1 8.533334-8.533334z" p-id="1987" fill="#d81e06"></path></svg>