<?xml version="1.0" standalone="no"?><!DOCTYPE svg PUBLIC "-//W3C//DTD SVG 1.1//EN" "http://www.w3.org/Graphics/SVG/1.1/DTD/svg11.dtd"><svg t="1625996358487" class="icon" viewBox="0 0 1024 1024" version="1.1" xmlns="http://www.w3.org/2000/svg" p-id="1632" xmlns:xlink="http://www.w3.org/1999/xlink" width="200" height="200"><defs><style type="text/css"></style></defs><path d="M475.2 221.1L294.3 384c-5.1 4.6-11.8 7.2-18.7 7.2H121.4v242.1h154c6.9 0 13.6 2.6 18.7 7.2l181.1 162.9V221.1zM264.9 335.3l219.6-197.6c18-16.2 46.6-3.4 46.6 20.8V866c0 24.2-28.6 36.9-46.6 20.8L264.7 689.1H93.5c-15.4 0-27.9-12.5-27.9-27.9v-298c0-15.4 12.5-27.9 27.9-27.9h171.4zM633.5 838v-55.9c149.1 0 270-120.9 270-270s-120.9-270-270-270v-55.9c180 0 325.9 145.9 325.9 325.9S813.4 838 633.5 838z m18.6-148.9v-55.9c66.8 0 121-54.2 121-121s-54.2-121-121-121v-55.9c97.7 0 176.9 79.2 176.9 176.9s-79.2 176.9-176.9 176.9z" p-id="1633" fill="#d81e06"></path></svg>